<?xml version="1.0" encoding="UTF-8"?><svg id="a" xmlns="http://www.w3.org/2000/svg" width="1000" height="1000" xmlns:xlink="http://www.w3.org/1999/xlink" viewBox="0 0 1000 1000"><defs><clipPath id="b"><rect x="248.04" y="362.14" width="503.92" height="275.72" fill="none" stroke-width="0"/></clipPath><clipPath id="c"><rect x="237.32" y="359.26" width="523.93" height="287.95" fill="none" stroke-width="0"/></clipPath></defs><g clip-path="url(#b)"><g clip-path="url(#c)"><path d="M248.04,366.67h132.96c28.93,0,50.63,7.07,65.03,21.28,14.41,14.15,21.64,34.37,21.64,60.49s-7.84,47.96-23.57,63.1c-15.73,15.14-39.72,22.71-71.96,22.71h-43.76v98.9h-80.34v-266.48ZM328.38,480.27h19.59c15.43,0,26.22-2.73,32.49-8.25,6.21-5.52,9.35-12.59,9.35-21.16s-2.71-15.51-8.14-21.28c-5.36-5.83-15.55-8.75-30.5-8.75h-22.78v59.44ZM681.87,524.26l70.09,21.84c-4.7,20.23-12.11,37.1-22.24,50.69-10.12,13.59-22.72,23.83-37.73,30.71-15.01,6.95-34.11,10.36-57.26,10.36-28.15,0-51.17-4.22-68.95-12.59-17.84-8.44-33.27-23.27-46.23-44.49-12.9-21.22-19.41-48.33-19.41-81.4,0-44.11,11.39-78.05,34.17-101.69,22.78-23.7,55.03-35.55,96.68-35.55,32.61,0,58.22,6.76,76.9,20.35,18.68,13.59,32.55,34.43,41.59,62.54l-70.64,16.19c-2.47-8.13-5.06-14.08-7.78-17.87-4.46-6.27-9.94-11.11-16.39-14.52-6.51-3.41-13.74-5.09-21.76-5.09-18.08,0-32,7.51-41.65,22.52-7.29,11.17-10.97,28.66-10.97,52.55,0,29.59,4.4,49.82,13.08,60.8,8.74,10.98,20.97,16.44,36.71,16.44s26.88-4.4,34.72-13.28c7.83-8.81,13.5-21.65,17.06-38.53" stroke-width="0"/></g></g></svg>