<?xml version="1.0" encoding="UTF-8"?><svg id="a" xmlns="http://www.w3.org/2000/svg" width="1000" height="1000" viewBox="0 0 1000 1000"><path d="M202.17,475.31c.14,0,.31.12.4.2,37.03,28.17,100.45,97.86,81.11,117.54-21.78,19.06-50.3,30.62-81.52,30.62-31.22,0-59.74-11.55-81.52-30.62-19.34-19.68,44.07-89.37,81.11-117.54.1-.08.27-.2.41-.2Z" fill="#067d07" stroke-width="0"/><path d="M266.68,394.11c-18.97-11.27-39.52-18.12-64.51-18.12s-45.54,6.85-64.51,18.12c-.22.13-.31.39-.21.61.1.23.35.27.6.21,23.98-5.18,60.4,15.53,63.86,17.61.08.05.16.09.26.09s.18-.05.26-.09c3.45-2.08,39.88-22.79,63.86-17.61.25.06.5.01.6-.21.11-.23.02-.49-.21-.61Z" fill="#067d07" stroke-width="0"/><path d="M115.48,411.52c-.21.11-.38.26-.55.42-22.6,22.43-36.6,53.52-36.6,87.89,0,28.21,9.44,54.2,25.32,75.03.15.2.44.33.66.2.21-.12.23-.4.14-.64-9.44-29.19,38.83-99.94,63.75-129.61.09-.1.17-.22.17-.36,0-.18-.09-.31-.21-.41-37.77-37.58-50.6-33.58-52.68-32.51Z" fill="#067d07" stroke-width="0"/><path d="M236.17,444.03c-.12.1-.21.23-.21.41,0,.14.08.25.17.36,24.93,29.67,73.19,100.43,63.75,129.61-.08.24-.07.51.14.64.22.13.51,0,.66-.2,15.88-20.82,25.32-46.82,25.32-75.03,0-34.37-14-65.45-36.6-87.89-.16-.16-.34-.31-.55-.42-2.08-1.07-14.91-5.07-52.68,32.51Z" fill="#067d07" stroke-width="0"/><polygon points="509.29 576.11 483.95 576.11 440.34 516.08 396.72 576.11 371.38 576.11 427.67 498.64 375.8 427.25 401.14 427.25 440.34 481.2 479.54 427.25 504.88 427.25 453.01 498.64 509.29 576.11" fill="#067d07" stroke-width="0"/><path d="M634.33,512.29c-4.24-6.08-10.58-10.79-18.84-13.98,12.8-7.1,19.3-17.96,19.3-32.28,0-11.55-4.06-21-12.06-28.1-8-7.09-19.65-10.69-34.65-10.69h-66.88v63.58h-19.37l-13.8,18.99h33.16v66.29h69.8c15.96,0,28.39-3.81,36.94-11.31,8.56-7.51,12.89-17.95,12.89-31.02,0-8.07-2.19-15.3-6.5-21.49ZM543.94,446.86h42.68c8.25,0,14.69,1.88,19.14,5.58,4.44,3.69,6.7,8.89,6.7,15.47,0,7.61-2.17,13.4-6.44,17.19-4.28,3.8-10.81,5.73-19.4,5.73h-42.68v-43.97ZM610.66,550.5c-4.8,3.98-11.84,6-20.92,6h-45.81v-46.68h45.81c9.35,0,16.46,1.98,21.12,5.89,4.65,3.9,7.01,9.84,7.01,17.66,0,7.4-2.43,13.17-7.22,17.13Z" fill="#067d07" stroke-width="0"/><path d="M788.78,470.23c-3.3-9.37-8.31-17.77-14.9-24.99-6.66-7.08-14.47-12.46-23.22-16-8.74-3.54-18.66-5.33-29.48-5.33s-20.94,1.79-29.68,5.33c-8.74,3.54-16.49,8.92-23.01,16-6.66,7.21-11.72,15.62-15.05,24.99-3.33,9.36-5.02,19.94-5.02,31.45s1.69,22.17,5.02,31.5c3.33,9.33,8.4,17.65,15.05,24.73,6.52,7.15,14.26,12.58,23.01,16.16,8.74,3.57,18.73,5.38,29.68,5.38s20.74-1.81,29.48-5.38c8.74-3.57,16.56-9.01,23.22-16.16,6.59-7.15,11.6-15.5,14.9-24.83,3.29-9.33,4.96-19.89,4.96-31.39s-1.67-22.09-4.96-31.45ZM756.88,543.44h0c-8.81,10.33-20.82,15.56-35.69,15.56s-26.88-5.23-35.69-15.56c-8.96-10.2-13.5-24.24-13.5-41.76s4.54-31.5,13.5-41.97c8.95-10.19,20.96-15.35,35.69-15.35s26.74,5.17,35.69,15.35c8.82,10.2,13.29,24.32,13.29,41.97s-4.47,31.7-13.29,41.76Z" fill="#067d07" stroke-width="0"/><polygon points="865.56 498.64 917.43 427.25 892.09 427.25 852.89 481.2 813.69 427.25 788.35 427.25 840.22 498.64 783.93 576.11 809.27 576.11 852.89 516.08 896.51 576.11 921.85 576.11 865.56 498.64" fill="#067d07" stroke-width="0"/></svg>