<?xml version="1.0" encoding="UTF-8"?><svg id="a" xmlns="http://www.w3.org/2000/svg" width="1000" height="1000" viewBox="0 0 1000 1000"><path d="M232.35,519.3l-42.52-68.79h-30.73v98.65s30.53,0,30.53,0v-68.79l42.74,68.79h30.45v-98.65h-30.49l.02,68.79ZM474.36,483.68v-9.76h-16.07v-13.27h-29.69l.02,13.28h-16.14v9.75h16.13l-.02,65.47h29.72l-.03-65.47h16.07ZM279.79,549.15h29.66v-65.59h-29.66s0,65.59,0,65.59ZM279.72,470.65h29.73v-20.16h-29.73v20.16ZM799.63,479.08c-23.94,0-43.36,16.49-43.36,36.83s19.41,36.83,43.36,36.83,43.35-16.49,43.35-36.83-19.41-36.83-43.35-36.83M811.51,529.72c0,10.45-6.17,14.77-12.12,14.77s-12.16-4.31-12.16-14.77c0-3.98.01-14.15.01-14.15,0,0,.02-9.7.02-13.68,0-10.41,6.21-14.69,12.13-14.69s12.12,4.29,12.12,14.69c0,3.97,0,11.32.03,13.96,0,.17-.02,9.92-.02,13.86M717.34,486.8c-4.74-2.67-9.75-5.24-16.79-5.86-21.37-1.88-37.71,17.03-37.71,34.35,0,22.82,17.62,31.28,20.29,32.52,9.98,4.65,22.79,4.66,34.14-2.46,0,.61.01,3.8.01,3.8h29.33v-98.64h-29.27v36.3ZM717.54,516.02s0,7.42,0,11.64c0,10.13-7.01,12.78-11.63,12.78s-11.63-2.65-11.63-12.78c0-3.49,0-11.67,0-11.67,0,0,0-8.33,0-11.69,0-10.15,6.91-12.73,11.63-12.73s11.61,2.58,11.61,12.73c0,3.49,0,11.73,0,11.73M378.91,480.52c-9.81.28-17.98,4.48-23.66,9.9-.03-1.62,0-6.9,0-6.9l-29.47.02.02,65.59h29.45s-.03-40.28-.03-43.08c0-5.71,6.01-12.07,14.08-12.07s13.55,6.36,13.55,12.07v43.08h29.48s-.02-31.08,0-35.69c.16-25.97-22.35-33.24-33.43-32.92M619.97,480.52c-9.81.28-17.97,4.48-23.65,9.9-.03-1.62,0-6.9,0-6.9l-29.43.02-.02,65.59h29.45s-.03-40.28-.03-43.08c0-5.71,6.01-12.07,14.08-12.07s13.55,6.36,13.55,12.07v43.08h29.48s-.02-31.08,0-35.69c.16-25.97-22.34-33.24-33.43-32.92M557.89,516.63c0-20.34-19.65-37.2-43.77-37.2s-43.68,16.49-43.68,36.83,19.56,36.83,43.68,36.83c20.03,0,36.93-11.42,42.09-26.91l-29.57.02s.02.29.02,3.98c0,12-7.89,14.66-12.27,14.66s-12.41-2.66-12.41-14.66c0-3.59.02-13.54.02-13.54,0,0,55.88.02,55.88-.01M503.95,493.54c2.31-4.04,6.57-5.96,10.43-5.98,3.86.02,8.12,1.95,10.44,5.98,1.88,3.29,1.97,7.13,1.93,12.87h-24.76c-.04-5.75.08-9.59,1.97-12.87M854.77,462.69c0-3.21-2.38-4.84-7.18-4.84h-6.59v16.82h4.08v-6.88h2.01l3.22,6.88h4.55l-3.75-7.51c2.3-.59,3.67-2.25,3.67-4.47M847.09,465.32h-2.01v-4.88h1.8c2.46,0,3.67.75,3.67,2.51s-1.13,2.38-3.47,2.38M847.21,451.28c-8.38,0-15.18,6.79-15.18,15.18s6.8,15.19,15.18,15.19,15.19-6.8,15.19-15.19-6.8-15.18-15.19-15.18M847.21,478.75c-6.78,0-12.27-5.5-12.27-12.28s5.5-12.28,12.27-12.28,12.28,5.5,12.28,12.28-5.5,12.28-12.28,12.28M814.13,395.23H185.87c-66.49-.15-111.15,47.65-111.15,104.96s44.56,104.56,111.25,104.59h628.07c66.69-.02,111.25-47.28,111.25-104.59s-44.66-105.1-111.15-104.96M813.83,579.08H186.17c-53,.19-85.21-35.39-85.21-79.03s32.4-78.94,85.21-79.04h627.66c52.81.1,85.2,35.39,85.2,79.04s-32.21,79.22-85.2,79.03" fill="#e7000a" stroke-width="0"/></svg>