<?xml version="1.0" encoding="UTF-8"?><svg id="a" xmlns="http://www.w3.org/2000/svg" width="1000" height="1000" viewBox="0 0 1000 1000"><path d="M328.48,447.03l-43.47-.02c-.18,0-.33.14-.33.31v101.67c0,.16.15.31.33.31h17.62c.16,0,.31-.15.31-.31l.02-90.63c0-.09.03-.15.1-.15l20.17-.03c7.34,0,11.38,7.4,11.38,20.81s-4.03,20.84-11.38,20.84h-12.14c-.18-.01-.3.13-.3.3v10.55c0,.2.12.33.3.33h17.39c6.13,0,12.14-2.84,16.48-7.73,5.14-5.8,7.84-14.16,7.84-24.2,0-19.44-9.5-32.04-24.32-32.04" fill="#0070d1" stroke-width="0"/><path d="M381.61,447.01h-17.63c-.2,0-.34.14-.34.31v101.67c0,.16.15.31.34.31h17.63c.16,0,.32-.15.32-.31v-101.67c0-.16-.16-.31-.32-.31" fill="#0070d1" stroke-width="0"/><path d="M458.49,471.76c0-.18-.16-.32-.33-.32h-31.39c-28.15,0-31.75,20.66-31.75,38.82l.02,15.71c0,13.52,8.41,23.33,19.96,23.33h17.13c.16,0,.31-.15.31-.31v-10.53c0-.17-.15-.32-.31-.32l-12.23.02c-2.82-.06-6.61-1.25-6.61-10.94v-16.96c-.01-11.27,1.03-18.47,3.37-22.57,2.53-4.53,6.52-5.13,10.11-5.13h13.38c.07,0,.1.07.11.16,0,0-.02,66.28-.02,66.28,0,.16.14.31.32.31h17.6c.17,0,.33-.15.33-.31v-77.23Z" fill="#0070d1" stroke-width="0"/><path d="M585.3,489.56l-8.68-.66c-6.51-.56-11.35-4.17-11.35-14.83,0-12.45,5.59-15.86,13.04-15.86h24.03c.15,0,.32-.14.32-.31v-10.57c0-.16-.17-.31-.32-.31h-26.53c-16.4,0-28.06,9.64-28.06,28.83v.83c0,15.15,9.32,26.08,23.21,27.14l8.64.64c6.59.5,10.7,6.39,10.7,15.34v2.52c0,5.59-1.4,15.82-13.39,15.82h-24.97c-.16,0-.32.15-.32.32v10.53c0,.16.15.31.32.31h30.99c9.55,0,25.54-3.87,25.54-29.86,0-9.42-2.14-16.84-6.47-22.2-3.7-4.6-9.17-7.1-16.7-7.68" fill="#0070d1" stroke-width="0"/><path d="M729.67,471.76c0-.18-.15-.32-.32-.32h-31.46c-28.09,0-31.73,20.66-31.73,38.82l.02,15.71c0,13.52,8.4,23.33,20.01,23.33h17.08c.16,0,.32-.15.32-.31v-10.53c0-.17-.15-.32-.32-.32l-12.24.02c-2.81-.06-6.57-1.25-6.58-10.94v-16.96c0-11.27,1.06-18.47,3.34-22.57,2.54-4.53,6.55-5.13,10.08-5.13h13.44c.07,0,.12.07.13.16l-.03,66.28c0,.16.14.31.32.31h17.62c.17,0,.3-.15.3-.31v-77.23Z" fill="#0070d1" stroke-width="0"/><path d="M658.85,471.44h-19.12s-.1-.05-.1-.12v-12.81c0-.17-.13-.32-.31-.32h-17.61c-.18,0-.34.15-.34.32v67.47c0,13.51,8.42,23.32,20.02,23.32h12.61c.18,0,.32-.15.32-.31v-10.53c0-.17-.14-.33-.32-.33h-7.74c-1.98-.03-6.64-.13-6.65-10.09v-45.42s.05-.1.11-.1c5.86.03,19.13,0,19.13,0,.16,0,.31-.14.31-.29v-10.47c0-.18-.15-.32-.31-.32" fill="#0070d1" stroke-width="0"/><path d="M781.84,471.44h-19.02c-.07,0-.13-.05-.13-.12v-12.81c0-.17-.13-.32-.29-.32h-17.65c-.17,0-.32.15-.32.32v67.47c0,13.51,8.41,23.32,20,23.32h12.61c.19,0,.31-.15.31-.31v-10.53c0-.17-.13-.33-.31-.33h-7.74c-1.99-.03-6.61-.13-6.61-10.09v-45.42s.06-.1.11-.1c5.81.03,19.04,0,19.04,0,.15,0,.31-.14.31-.29v-10.47c0-.18-.16-.32-.31-.32" fill="#0070d1" stroke-width="0"/><path d="M810.96,471.44h-17.61c-.16,0-.32.14-.32.32v77.23c0,.16.16.31.32.31h17.61c.19,0,.32-.15.32-.31v-77.23c0-.18-.13-.32-.32-.32" fill="#0070d1" stroke-width="0"/><path d="M810.96,447.01h-17.61c-.16,0-.32.14-.32.31v14.77c0,.18.16.31.32.31h17.61c.19,0,.32-.13.32-.31v-14.77c0-.16-.13-.31-.32-.31" fill="#0070d1" stroke-width="0"/><path d="M932.81,471.44h-31.43c-.16,0-.31.14-.31.32v77.23c0,.16.13.31.29.31h17.64c.17,0,.3-.15.3-.31l-.02-66.3c0-.09.04-.13.12-.13h13.4c3.62,0,7.6.58,10.14,4.77,2.33,3.78,3.38,10.44,3.38,20.89.01.45-.01,40.77-.01,40.77,0,.16.14.31.32.31h17.57c.19,0,.33-.15.33-.31v-38.73c0-18.15-3.62-38.81-31.71-38.81" fill="#0070d1" stroke-width="0"/><path d="M856.21,471.44c-29.42,0-33.18,20.76-33.18,38.91s3.76,39,33.18,39,33.17-20.83,33.17-39-3.75-38.91-33.17-38.91M867.37,533.01c-2.77,4.56-7.17,5.18-11.17,5.18s-8.37-.61-11.17-5.18c-2.53-4.11-3.7-11.31-3.7-22.66v-.09c0-13.39,1.65-21,5.34-24.63,2.2-2.2,5.06-3.09,9.53-3.09s7.36.89,9.57,3.09c3.65,3.62,5.31,11.27,5.31,24.72,0,11.36-1.17,18.56-3.71,22.66" fill="#0070d1" stroke-width="0"/><path d="M468.43,471.44c-.16,0-.25.14-.2.31l26.13,76.52c.04.17.04.44,0,.61l-14.71,37.89c-.06.18.02.31.19.31h15.32c.19,0,.39-.13.45-.31l45.87-115.01c.07-.18-.02-.31-.19-.31h-16.72c-.18,0-.37.14-.43.31l-19.42,50.28c-.07.16-.15.16-.22,0l-17.14-50.28c-.04-.18-.23-.31-.41-.31h-18.5Z" fill="#0070d1" stroke-width="0"/><path d="M984.44,532.26c5.06,0,8.48,3.77,8.48,8.52s-3.42,8.52-8.48,8.52-8.56-3.73-8.56-8.52,3.5-8.52,8.56-8.52ZM984.44,548.04c4.3,0,7.15-3.24,7.15-7.26s-2.85-7.22-7.15-7.22-7.19,3.25-7.19,7.22,2.81,7.26,7.19,7.26ZM981.06,535.83h3.9c1.81,0,3.13.53,3.13,2.56,0,1.18-.56,2.03-1.81,2.39v.04c.64.16,1.08.65,1.41,1.78.32,1.1.68,2.15.96,3.08h-1.81c-.24-.73-.56-1.99-.76-2.68-.28-1.14-.6-1.5-2.09-1.5h-1.16v4.18h-1.77v-9.86ZM982.83,540.25h1.57c1.25,0,2.01-.49,2.01-1.62,0-1.34-.92-1.54-1.89-1.54h-1.69v3.17Z" fill="#0070d1" stroke-width="0"/><path d="M89.6,412.93v158.99l36,11.4v-133.31c0-6.28,2.8-10.45,7.29-9.02,5.87,1.63,7.01,7.42,7.01,13.63v53.24c22.41,10.85,40.05,0,40.05-28.62s-10.34-42.27-40.78-52.74c-12.01-4-34.25-10.74-49.58-13.57" fill="#0070d1" stroke-width="0"/><path d="M132.45,560.08l57.82-20.58c6.54-2.42,7.54-5.72,2.25-7.45-5.38-1.76-14.97-1.26-21.58,1.11l-38.48,13.57v-21.66l2.2-.73s11.14-3.94,26.81-5.64c15.63-1.72,34.81.22,49.88,5.9,16.98,5.39,18.88,13.26,14.58,18.74-4.36,5.42-14.92,9.34-14.92,9.34l-78.55,28.22v-20.82Z" fill="#0070d1" stroke-width="0"/><path d="M23.65,557.89c-17.41-4.85-20.31-15.1-12.37-21.01,7.33-5.41,19.8-9.47,19.8-9.47l51.57-18.39v20.93l-37.08,13.29c-6.56,2.35-7.55,5.66-2.26,7.39,5.38,1.8,14.94,1.31,21.51-1.11l17.83-6.43v18.68c-1.15.19-2.43.39-3.6.59-17.77,2.95-36.71,1.74-55.41-4.45Z" fill="#0070d1" stroke-width="0"/><path d="M213.73,566.29c5.06,0,8.48,3.77,8.48,8.52s-3.42,8.52-8.48,8.52-8.56-3.73-8.56-8.52,3.5-8.52,8.56-8.52ZM213.73,582.07c4.3,0,7.15-3.24,7.15-7.26s-2.85-7.22-7.15-7.22-7.19,3.25-7.19,7.22,2.81,7.26,7.19,7.26ZM210.35,569.85h3.9c1.81,0,3.13.53,3.13,2.56,0,1.18-.56,2.03-1.81,2.39v.04c.64.16,1.08.65,1.41,1.78.32,1.1.68,2.15.96,3.08h-1.81c-.24-.73-.56-1.99-.76-2.68-.28-1.14-.6-1.5-2.09-1.5h-1.16v4.18h-1.77v-9.86ZM212.12,574.28h1.57c1.25,0,2.01-.49,2.01-1.62,0-1.34-.92-1.54-1.89-1.54h-1.69v3.17Z" fill="#0070d1" stroke-width="0"/></svg>